<?xml version="1.0" encoding="UTF-8" standalone="no"?>
<!-- Created with Inkscape (http://www.inkscape.org/) -->

<svg
   width="30"
   height="30"
   viewBox="30 30 30 30"
   version="1.1"
   id="svg1"
   xmlns="http://www.w3.org/2000/svg"
   xmlns:svg="http://www.w3.org/2000/svg">
  <defs
     id="defs1" />
  <g
     id="layer1">
    <path
       style="fill:none;fill-opacity:0;stroke:#e3e3e3;stroke-width:1;stroke-dasharray:none;stroke-opacity:1"
       d="m 39.621976,36.738435 c 0,0.916854 -0.06708,1.274652 -1.095754,1.319376 -1.028665,0.04473 -1.006303,-0.380159 -0.961578,-1.341738 0.04473,-0.961579 -0.02236,-1.207564 0.872129,-1.274652 0.894493,-0.06708 2.683477,-0.268347 2.571664,1.431189 -0.111809,1.699534 -0.134166,5.098603 -0.134166,5.098603 l -0.02611,11.353654"
       id="path49" />
    <path
       style="fill:none;fill-opacity:0;stroke:#e3e3e3;stroke-width:1;stroke-dasharray:none;stroke-opacity:1"
       d="m 42.34664,35.76326 c 0,0 1.5883,-0.870012 3.53964,-0.870012 1.95134,0 3.04046,0.09855 3.04046,3.910472 0,3.81192 0,14.24932 0,14.24932"
       id="path50" />
    <path
       style="fill:none;fill-opacity:0;stroke:#e3e3e3;stroke-width:1;stroke-dasharray:none;stroke-opacity:1"
       d="m 35.296993,55.916635 c 0.03105,-0.0121 3.049425,-0.276757 3.603178,-2.1834 0,0 0.07546,2.117236 1.41486,2.216481"
       id="path51" />
    <path
       style="fill:none;fill-opacity:0;stroke:#e3e3e3;stroke-width:1;stroke-dasharray:none;stroke-opacity:1"
       d="m 40.093483,55.916635 c 0.03105,-0.0121 3.049425,-0.276757 3.603178,-2.1834 0,0 0.07546,2.117236 1.41486,2.216481"
       id="path51-0" />
    <path
       style="fill:none;fill-opacity:0;stroke:#e3e3e3;stroke-width:1;stroke-dasharray:none;stroke-opacity:1"
       d="m 44.91899,55.949716 c 0.03105,-0.0121 3.049425,-0.276757 3.603178,-2.1834 0,0 0.07546,2.117236 1.41486,2.216481"
       id="path51-5" />
    <path
       style="fill:none;fill-opacity:0;stroke:#e3e3e3;stroke-width:1;stroke-dasharray:none;stroke-opacity:1"
       d="m 49.522949,55.949716 c 0.03105,-0.0121 3.049425,-0.276757 3.603178,-2.1834 0,0 0.07546,2.117236 1.41486,2.216481"
       id="path51-0-4" />
    <path
       style="fill:none;fill-opacity:0;stroke:#e3e3e3;stroke-width:1.23359;stroke-dasharray:none;stroke-opacity:1"
       d="m 45,50.857529 v 1.123098"
       id="path53" />
    <path
       style="fill:none;fill-opacity:0;stroke:#e3e3e3;stroke-width:1;stroke-dasharray:none;stroke-opacity:1"
       d="m 45,48.96884 v -9.57518 c 0,0 -0.11987,-1.49754 -0.616795,-1.67906"
       id="path54" />
  </g>
</svg>
